<svg width="454" height="100" viewBox="0 0 454 100" fill="none" xmlns="http://www.w3.org/2000/svg">
  <path d="M60.9561 43.9736L42.6572 46.9736L55.6484 23.7578C63.1919 29.994 67.9999 39.4218 68 49.9736C68 68.7513 52.7777 83.9736 34 83.9736C23.4358 83.9736 11.1246 89.9288 0.0400391 99.8965L60.9561 43.9736Z" fill="#4FD27A"/><path d="M13.1396 76.8232C5.14412 70.6022 0 60.8889 0 49.9736C0.0001297 31.1961 15.2224 15.9736 34 15.9736C45.1929 15.9736 57.9504 10 68.9004 0C68.9004 0 68.8822 0.027626 68.8447 0.0791016L8.95605 55.9736L26.7207 52.9736L13.1396 76.8232Z" fill="#4FD27A"/>
  <path d="M383.9 71.688L399.132 29H415.004L419.228 48.2L437.212 29H453.084L437.852 71.688H424.604L432.476 49.608L411.676 71.688H410.076L405.02 49.608L397.148 71.688H383.9Z" fill="#111213"/>
  <path d="M369.679 60.168L380.751 29H393.999L381.391 64.264C380.495 66.568 379.023 68.424 376.911 69.704C374.799 71.048 372.559 71.688 370.191 71.688H342.351C341.199 71.688 340.111 71.56 339.215 71.176C338.319 70.856 337.551 70.344 337.039 69.704C336.463 69.064 336.079 68.296 335.951 67.4C335.823 66.504 335.951 65.416 336.399 64.264L349.007 29H362.255L351.183 60.168H369.679Z" fill="#111213"/>
  <path d="M336.9 40.5195H325.875L314.739 71.6875H301.536L312.627 40.5195H299.208C299.848 40.5195 300.424 40.3278 301.064 39.8799C301.64 39.4319 302.217 38.8554 302.729 38.1514C303.24 37.5114 303.688 36.7435 304.072 35.9756C304.456 35.2077 304.841 34.4398 305.097 33.6719L306.761 29H341L336.9 40.5195Z" fill="#111213"/>
  <path d="M250.914 71.688C249.762 71.688 248.674 71.56 247.778 71.176C246.882 70.856 246.114 70.344 245.602 69.704C245.026 69.064 244.642 68.296 244.514 67.4C244.386 66.504 244.514 65.416 244.962 64.264L254.946 36.424C255.778 34.12 257.25 32.328 259.362 30.984C261.474 29.704 263.714 29 266.146 29H297.826L296.162 33.672C295.906 34.44 295.522 35.208 295.138 35.976C294.754 36.744 294.306 37.512 293.794 38.152C293.282 38.856 292.706 39.432 292.13 39.88C291.49 40.328 290.914 40.52 290.274 40.52H266.722L259.746 60.168H286.754L282.594 71.688H250.914Z" fill="#111213"/>
  <path d="M203.419 37.256L200.923 29H220.443L230.491 52.04H230.939L239.195 29H252.443L237.211 71.688H223.067L213.019 48.712H212.571L204.379 71.688H191.131L203.419 37.256Z" fill="#111213"/>
  <path d="M159.078 37.256L156.582 29H183.526L186.854 71.688H172.198L171.814 65.672H151.206L146.47 71.688H131.878L159.078 37.256ZM170.214 41.416L160.23 54.088H170.982L170.214 41.416Z" fill="#111213"/>
  <path d="M99.0444 56.136C97.8924 56.136 96.8044 56.008 95.9084 55.624C94.9484 55.304 94.1804 54.792 93.6684 54.152C93.0924 53.512 92.7724 52.744 92.6444 51.848C92.5164 50.952 92.6444 49.864 93.0924 48.712L97.5084 36.424C98.3404 34.12 99.8124 32.328 101.924 30.984C104.036 29.704 106.276 29 108.708 29H143.076L141.412 33.672C141.156 34.44 140.772 35.208 140.388 35.976C140.004 36.744 139.556 37.512 139.044 38.152C138.532 38.856 137.956 39.432 137.38 39.88C136.74 40.328 136.164 40.52 135.524 40.52H109.284L107.812 44.616H128.932C131.236 44.616 133.028 45.32 134.244 46.6C135.46 47.944 135.652 49.736 134.82 52.04L130.468 64.264C129.572 66.568 128.1 68.424 125.988 69.704C123.876 71.048 121.636 71.688 119.268 71.688H84.9004L89.0604 60.168H118.756L120.164 56.136H99.0444Z" fill="#111213"/></svg>